<?xml version="1.0" encoding="utf-8"?>
<svg id="master-artboard" viewBox="0 0 2340 1560" version="1.1" xmlns="http://www.w3.org/2000/svg" x="0px" y="0px" width="2340px" height="1560px" enable-background="new 0 0 2340 1560">
<metadata><!--?xpacket begin="﻿" id="W5M0MpCehiHzreSzNTczkc9d"?-->

                                                                                                    
                                                                                                    
                                                                                                    
                                                                                                    
                                                                                                    
                                                                                                    
                                                                                                    
                                                                                                    
                                                                                                    
                                                                                                    
                                                                                                    
                                                                                                    
                                                                                                    
                                                                                                    
                                                                                                    
                                                                                                    
                                                                                                    
                                                                                                    
                                                                                                    
                                                                                                    
                           
<!--?xpacket end="w"?-->
	</metadata>


<linearGradient id="SVGID_1_" gradientUnits="userSpaceOnUse" x1="1121.7876" y1="514.4634" x2="998.4623" y2="844.5773" gradientTransform="matrix(-1 0 0 1 2214.8438 0)">
		<stop offset="0" style="stop-color:#F7B135"/>
		<stop offset="1" style="stop-color:#E6362C"/>
	</linearGradient><path fill="url(#SVGID_1_)" d="M1106.747,875.293c4.953,0,9.005-4.052,9.005-9.005v-51.478h19.143v14.332&#10;&#9;&#9;c0,4.953,4.052,9.005,9.005,9.005h23.337c4.953,0,9.006-4.052,9.006-9.005v-23.338c0-4.952-4.053-9.007-9.006-9.007h-14.332&#10;&#9;&#9;v-19.141h39.393c4.953,0,9.005-4.052,9.005-9.005v-48.396c0-4.953-4.052-9.005-9.005-9.005h-39.393v-30.388h22.063v14.259&#10;&#9;&#9;c0,4.953,4.053,9.005,9.005,9.005h23.265c4.952,0,9.004-4.052,9.004-9.005v-23.264c0-4.953-4.052-9.005-9.004-9.005h-14.259V640.79&#10;&#9;&#9;h24.765c4.952,0,9.005-4.052,9.005-9.005v-33.771c0-4.953-4.053-9.004-9.005-9.004h-24.765v-42.768&#10;&#9;&#9;c0-4.954-4.053-9.006-9.006-9.006h-34.594c-3.3-16.29-10.693-31.167-23.749-44.222c73.202,0,141.044,60.345,141.044,150.049&#10;&#9;&#9;c-1.03,10.698-5.942,23.065,4.801,43.741c0,0,23.038,40.543,22.245,47.303c0,0,1.13,12.73-18.68,12.73&#10;&#9;&#9;c0,0-10.771,0.694-10.771,8.387c0,11.405,5.854,12.906,5.854,18.065c0,1.204-0.6,7.355-7.219,7.355&#10;&#9;&#9;c-1.641,0-1.577,1.568,0.785,4.592c0,0,4.418,4.905-3.156,15.5c-2.808,3.884-7.343,8.762-4.563,18.673&#10;&#9;&#9;c0,0,3.563,19.299-3.979,23.86c0,0-8.589,10.198-43.14,5.942c-12.064-1.482-39.369-0.43-52.669,19.182&#10;&#9;&#9;c-7.08,10.439-12.281,24.32-12.281,24.32s-46.457,2.978-52.826-17.422H1106.747z" transform="matrix(1, 0, 0, 1, 2.842170943040401e-14, 0)"/><g transform="matrix(1, 0, 0, 1, 5.684341886080802e-14, 0)">
			
				<linearGradient id="SVGID_2_" gradientUnits="userSpaceOnUse" x1="1049.0103" y1="597.4595" x2="978.774" y2="827.0788" gradientTransform="matrix(-1 0 0 1 2214.8438 0)">
				<stop offset="0" style="stop-color:#69C8F3"/>
				<stop offset="1" style="stop-color:#2475B9"/>
			</linearGradient>
			<path fill="url(#SVGID_2_)" d="M1132.198,555.247c0-4.953,4.052-9.005,9.005-9.005h33.764c4.953,0,9.005,4.052,9.005,9.005&#10;&#9;&#9;&#9;&#9;v33.763c0,4.953-4.052,9.004-9.005,9.004h-33.764c-4.953,0-9.005-4.052-9.005-9.004V555.247z"/>
		</g><linearGradient id="SVGID_3_" gradientUnits="userSpaceOnUse" x1="1021.8613" y1="589.1548" x2="951.6232" y2="818.7802" gradientTransform="matrix(-1 0 0 1 2214.8438 0)">
				<stop offset="0" style="stop-color:#69C8F3"/>
				<stop offset="1" style="stop-color:#2475B9"/>
			</linearGradient><path fill="url(#SVGID_3_)" d="M1183.972,607.021c0-4.953,4.054-9.006,9.006-9.006h15.76c4.952,0,9.005,4.054,9.005,9.006v15.759&#10;&#9;&#9;&#9;&#9;c0,4.953-4.053,9.005-9.005,9.005h-15.76c-4.952,0-9.006-4.052-9.006-9.005V607.021z" transform="matrix(1, 0, 0, 1, 8.526512829121202e-14, 0)"/><linearGradient id="SVGID_4_" gradientUnits="userSpaceOnUse" x1="1065.9507" y1="602.6431" x2="995.715" y2="832.2603" gradientTransform="matrix(-1 0 0 1 2214.8438 0)">
				<stop offset="0" style="stop-color:#69C8F3"/>
				<stop offset="1" style="stop-color:#2475B9"/>
			</linearGradient><path fill="url(#SVGID_4_)" d="M1143.899,640.79c0-4.953,4.052-9.005,9.005-9.005h22.063c4.953,0,9.005,4.052,9.005,9.005v22.063&#10;&#9;&#9;&#9;&#9;c0,4.953-4.052,9.005-9.005,9.005h-22.063c-4.953,0-9.005-4.052-9.005-9.005V640.79z" transform="matrix(1, 0, 0, 1, 8.526512829121202e-14, 0)"/><linearGradient id="SVGID_5_" gradientUnits="userSpaceOnUse" x1="1045.8501" y1="596.4922" x2="975.6128" y2="826.1149" gradientTransform="matrix(-1 0 0 1 2214.8438 0)">
				<stop offset="0" style="stop-color:#69C8F3"/>
				<stop offset="1" style="stop-color:#2475B9"/>
			</linearGradient><path fill="url(#SVGID_5_)" d="M1183.972,680.862c0-4.953,4.054-9.005,9.006-9.005h5.253c4.953,0,9.006,4.052,9.006,9.005v5.254&#10;&#9;&#9;&#9;&#9;c0,4.953-4.053,9.005-9.006,9.005h-5.253c-4.952,0-9.006-4.052-9.006-9.005V680.862z" transform="matrix(1, 0, 0, 1, 8.526512829121202e-14, 0)"/><linearGradient id="SVGID_6_" gradientUnits="userSpaceOnUse" x1="1118.7744" y1="618.7988" x2="1048.5375" y2="848.4204" gradientTransform="matrix(-1 0 0 1 2214.8438 0)">
				<stop offset="0" style="stop-color:#69C8F3"/>
				<stop offset="1" style="stop-color:#2475B9"/>
			</linearGradient><path fill="url(#SVGID_6_)" d="M1095.501,680.862c0-4.953,4.052-9.005,9.005-9.005h30.388c4.953,0,9.005,4.052,9.005,9.005&#10;&#9;&#9;&#9;&#9;v30.388c0,4.953-4.052,9.005-9.005,9.005h-30.388c-4.953,0-9.005-4.052-9.005-9.005V680.862z" transform="matrix(1, 0, 0, 1, 8.526512829121202e-14, 0)"/><linearGradient id="SVGID_7_" gradientUnits="userSpaceOnUse" x1="1149.4941" y1="628.1963" x2="1079.2578" y2="857.8159" gradientTransform="matrix(-1 0 0 1 2214.8438 0)">
				<stop offset="0" style="stop-color:#69C8F3"/>
				<stop offset="1" style="stop-color:#2475B9"/>
			</linearGradient><path fill="url(#SVGID_7_)" d="M1047.104,632.466c0-4.953,4.052-9.006,9.005-9.006h30.388c4.953,0,9.005,4.053,9.005,9.006&#10;&#9;&#9;&#9;&#9;v30.387c0,4.953-4.052,9.005-9.005,9.005h-30.388c-4.953,0-9.005-4.052-9.005-9.005V632.466z" transform="matrix(1, 0, 0, 1, 8.526512829121202e-14, 0)"/><linearGradient id="SVGID_8_" gradientUnits="userSpaceOnUse" x1="1088.0537" y1="609.4043" x2="1017.8179" y2="839.022" gradientTransform="matrix(-1 0 0 1 2214.8438 0)">
				<stop offset="0" style="stop-color:#69C8F3"/>
				<stop offset="1" style="stop-color:#2475B9"/>
			</linearGradient><path fill="url(#SVGID_8_)" d="M1143.899,729.26c0-4.953,4.052-9.005,9.005-9.005h30.387c4.953,0,9.006,4.052,9.006,9.005v30.387&#10;&#9;&#9;&#9;&#9;c0,4.953-4.053,9.005-9.006,9.005h-30.387c-4.953,0-9.005-4.052-9.005-9.005V729.26z" transform="matrix(1, 0, 0, 1, 8.526512829121202e-14, 0)"/><linearGradient id="SVGID_9_" gradientUnits="userSpaceOnUse" x1="1139.1357" y1="625.0225" x2="1068.8972" y2="854.649" gradientTransform="matrix(-1 0 0 1 2214.8438 0)">
				<stop offset="0" style="stop-color:#69C8F3"/>
				<stop offset="1" style="stop-color:#2475B9"/>
			</linearGradient><path fill="url(#SVGID_9_)" d="M1106.747,777.657c0-4.953,4.052-9.005,9.005-9.005h19.143c4.953,0,9.005,4.052,9.005,9.005&#10;&#9;&#9;&#9;&#9;v19.141c0,4.953-4.052,9.007-9.005,9.007h-19.143c-4.953,0-9.005-4.054-9.005-9.007V777.657z" transform="matrix(1, 0, 0, 1, 8.526512829121202e-14, 0)"/><linearGradient id="SVGID_10_" gradientUnits="userSpaceOnUse" x1="1197.4297" y1="642.8613" x2="1127.1937" y2="872.4795" gradientTransform="matrix(-1 0 0 1 2214.8438 0)">
				<stop offset="0" style="stop-color:#69C8F3"/>
				<stop offset="1" style="stop-color:#2475B9"/>
			</linearGradient><path fill="url(#SVGID_10_)" d="M1046.263,814.811c0-4.953,4.052-9.006,9.005-9.006h42.475c4.953,0,9.005,4.053,9.005,9.006&#10;&#9;&#9;&#9;&#9;v42.473c0,4.953-4.052,9.005-9.005,9.005h-42.475c-4.953,0-9.005-4.052-9.005-9.005V814.811z" transform="matrix(1, 0, 0, 1, 8.526512829121202e-14, 0)"/><linearGradient id="SVGID_11_" gradientUnits="userSpaceOnUse" x1="1119.937" y1="619.1582" x2="1049.7013" y2="848.7758" gradientTransform="matrix(-1 0 0 1 2214.8438 0)">
				<stop offset="0" style="stop-color:#69C8F3"/>
				<stop offset="1" style="stop-color:#2475B9"/>
			</linearGradient><path fill="url(#SVGID_11_)" d="M1143.899,814.811c0-4.953,4.052-9.006,9.005-9.006h5.327c4.953,0,9.005,4.053,9.005,9.006v5.327&#10;&#9;&#9;&#9;&#9;c0,4.952-4.052,9.005-9.005,9.005h-5.327c-4.953,0-9.005-4.053-9.005-9.005V814.811z" transform="matrix(1, 0, 0, 1, 8.526512829121202e-14, 0)"/><linearGradient id="SVGID_12_" gradientUnits="userSpaceOnUse" x1="1160.5698" y1="631.5835" x2="1090.3331" y2="861.2041" gradientTransform="matrix(-1 0 0 1 2214.8438 0)">
				<stop offset="0" style="stop-color:#69C8F3"/>
				<stop offset="1" style="stop-color:#2475B9"/>
			</linearGradient><path fill="url(#SVGID_12_)" d="M1076.36,747.27c0-4.953,4.052-9.005,9.005-9.005h12.377c4.953,0,9.005,4.052,9.005,9.005v12.377&#10;&#9;&#9;&#9;&#9;c0,4.953-4.052,9.005-9.005,9.005h-12.377c-4.953,0-9.005-4.052-9.005-9.005V747.27z" transform="matrix(1, 0, 0, 1, 8.526512829121202e-14, 0)"/>
</svg>